<?xml version="1.0" encoding="UTF-8" standalone="no"?>
<!-- Created with Inkscape (http://www.inkscape.org/) -->

<svg
   version="1.1"
   id="svg2"
   xml:space="preserve"
   width="4666.6665"
   height="2666.6667"
   viewBox="0 0 4666.6665 2666.6667"
   sodipodi:docname="4448.eps"
   xmlns:inkscape="http://www.inkscape.org/namespaces/inkscape"
   xmlns:sodipodi="http://sodipodi.sourceforge.net/DTD/sodipodi-0.dtd"
   xmlns="http://www.w3.org/2000/svg"
   xmlns:svg="http://www.w3.org/2000/svg"><defs
     id="defs6" /><sodipodi:namedview
     id="namedview4"
     pagecolor="#ffffff"
     bordercolor="#666666"
     borderopacity="1.0"
     inkscape:pageshadow="2"
     inkscape:pageopacity="0.0"
     inkscape:pagecheckerboard="0" /><g
     id="g8"
     inkscape:groupmode="layer"
     inkscape:label="ink_ext_XXXXXX"
     transform="matrix(1.3333333,0,0,-1.3333333,0,2666.6667)"><g
       id="g10"
       transform="scale(0.1)"><path
         d="M 0,0 H 35000 V 20000 H 0 Z"
         style="fill:#ffffff;fill-opacity:1;fill-rule:nonzero;stroke:none"
         id="path12" /><path
         d="m 5009.72,2513.2 c -6604.19,4843.8 -3004.6,7859.7 -185.31,8421.4 2819.27,561.6 2048.82,4052.2 4078.95,5900.8 1319.84,1201.9 5339.44,2240.6 9988.24,-469.5 4648.9,-2710.1 10396.3,-2561.3 12567.3,-3976.7 C 34218.4,10590 34338.3,6393.4 32468.1,4417.9 30419.1,2253.5 29599.3,2325.1 29599.3,2325.1 L 5009.72,2513.2"
         style="fill:#e6f6fa;fill-opacity:1;fill-rule:nonzero;stroke:none"
         id="path14" /><path
         d="m 3960.47,6399.8 h 7600.33 v 10880 H 3960.47 Z"
         style="fill:#ffffff;fill-opacity:1;fill-rule:nonzero;stroke:none"
         id="path16" /><path
         d="m 4010.47,6449.8 h 7500.33 v 10780 H 4010.47 Z m 7600.33,-100 H 3910.47 v 10980 h 7700.33 v -10980"
         style="fill:#63acc2;fill-opacity:1;fill-rule:nonzero;stroke:none"
         id="path18" /><path
         d="M 10793.7,14371.4 H 6117.56 c -50,0 -90.92,40.9 -90.92,90.9 v 12.2 c 0,50 40.92,90.9 90.92,90.9 h 4676.14 c 50,0 90.9,-40.9 90.9,-90.9 v -12.2 c 0,-50 -40.9,-90.9 -90.9,-90.9"
         style="fill:#bbd9ff;fill-opacity:1;fill-rule:nonzero;stroke:none"
         id="path20" /><path
         d="M 10793.7,14023.8 H 6117.56 c -50,0 -90.92,40.9 -90.92,90.9 v 12.2 c 0,50 40.92,90.9 90.92,90.9 h 4676.14 c 50,0 90.9,-40.9 90.9,-90.9 v -12.2 c 0,-50 -40.9,-90.9 -90.9,-90.9"
         style="fill:#bbd9ff;fill-opacity:1;fill-rule:nonzero;stroke:none"
         id="path22" /><path
         d="M 10793.7,13018.4 H 6117.56 c -50,0 -90.92,40.9 -90.92,90.9 v 12.2 c 0,50 40.92,90.9 90.92,90.9 h 4676.14 c 50,0 90.9,-40.9 90.9,-90.9 v -12.2 c 0,-50 -40.9,-90.9 -90.9,-90.9"
         style="fill:#bbd9ff;fill-opacity:1;fill-rule:nonzero;stroke:none"
         id="path24" /><path
         d="M 10793.7,12670.7 H 6117.56 c -50,0 -90.92,40.9 -90.92,91 v 12.1 c 0,50 40.92,90.9 90.92,90.9 h 4676.14 c 50,0 90.9,-40.9 90.9,-90.9 v -12.1 c 0,-50.1 -40.9,-91 -90.9,-91"
         style="fill:#bbd9ff;fill-opacity:1;fill-rule:nonzero;stroke:none"
         id="path26" /><path
         d="M 10793.7,11425.8 H 6117.56 c -50,0 -90.92,40.9 -90.92,90.9 v 12.2 c 0,50 40.92,90.9 90.92,90.9 h 4676.14 c 50,0 90.9,-40.9 90.9,-90.9 v -12.2 c 0,-50 -40.9,-90.9 -90.9,-90.9"
         style="fill:#bbd9ff;fill-opacity:1;fill-rule:nonzero;stroke:none"
         id="path28" /><path
         d="M 10793.7,11078.1 H 6117.56 c -50,0 -90.92,41 -90.92,91 v 12.1 c 0,50 40.92,91 90.92,91 h 4676.14 c 50,0 90.9,-41 90.9,-91 v -12.1 c 0,-50 -40.9,-91 -90.9,-91"
         style="fill:#bbd9ff;fill-opacity:1;fill-rule:nonzero;stroke:none"
         id="path30" /><path
         d="M 10793.7,10182.2 H 6117.56 c -50,0 -90.92,40.9 -90.92,90.9 v 12.2 c 0,50 40.92,90.9 90.92,90.9 h 4676.14 c 50,0 90.9,-40.9 90.9,-90.9 v -12.2 c 0,-50 -40.9,-90.9 -90.9,-90.9"
         style="fill:#bbd9ff;fill-opacity:1;fill-rule:nonzero;stroke:none"
         id="path32" /><path
         d="M 10793.7,9834.5 H 6117.56 c -50,0 -90.92,41 -90.92,91 v 12.1 c 0,50 40.92,91 90.92,91 h 4676.14 c 50,0 90.9,-41 90.9,-91 v -12.1 c 0,-50 -40.9,-91 -90.9,-91"
         style="fill:#bbd9ff;fill-opacity:1;fill-rule:nonzero;stroke:none"
         id="path34" /><path
         d="M 5121.03,13895.2 H 4811 c -134.76,0 -244.39,109.6 -244.39,244.4 v 310 c 0,134.8 109.63,244.4 244.39,244.4 h 310.03 c 134.76,0 244.4,-109.6 244.4,-244.4 v -310 c 0,-134.8 -109.64,-244.4 -244.4,-244.4 M 4811,14554 c -57.56,0 -104.4,-46.8 -104.4,-104.4 v -310 c 0,-57.6 46.84,-104.4 104.4,-104.4 h 310.03 c 57.57,0 104.4,46.8 104.4,104.4 v 310 c 0,57.6 -46.83,104.4 -104.4,104.4 H 4811"
         style="fill:#b1d3ff;fill-opacity:1;fill-rule:nonzero;stroke:none"
         id="path36" /><path
         d="M 5121.03,12577.5 H 4811 c -134.76,0 -244.39,109.7 -244.39,244.4 v 310.1 c 0,134.7 109.63,244.4 244.39,244.4 h 310.03 c 134.76,0 244.4,-109.7 244.4,-244.4 v -310.1 c 0,-134.7 -109.64,-244.4 -244.4,-244.4 M 4811,13236.4 c -57.56,0 -104.4,-46.9 -104.4,-104.4 v -310.1 c 0,-57.5 46.84,-104.4 104.4,-104.4 h 310.03 c 57.57,0 104.4,46.9 104.4,104.4 v 310.1 c 0,57.5 -46.83,104.4 -104.4,104.4 H 4811"
         style="fill:#b1d3ff;fill-opacity:1;fill-rule:nonzero;stroke:none"
         id="path38" /><path
         d="m 4985.41,12761.9 c -0.97,0 -1.94,0 -2.91,0.1 -17.63,0.9 -33.98,9.4 -44.72,23.4 l -222.84,290.7 c -20.16,26.3 -15.18,63.9 11.11,84.1 26.3,20.2 63.96,15.2 84.13,-11.1 l 179.71,-234.4 494.2,529.5 c 22.62,24.2 60.6,25.5 84.81,2.9 24.23,-22.6 25.53,-60.6 2.93,-84.8 L 5029.27,12781 c -11.38,-12.2 -27.28,-19.1 -43.86,-19.1"
         style="fill:#f37168;fill-opacity:1;fill-rule:nonzero;stroke:none"
         id="path40" /><path
         d="m 4811,11684.1 c -63.08,0 -114.39,-51.3 -114.39,-114.4 v -310 c 0,-63.1 51.31,-114.4 114.39,-114.4 h 310.04 c 63.07,0 114.39,51.3 114.39,114.4 v 310 c 0,63.1 -51.32,114.4 -114.39,114.4 z m 310.04,-658.8 H 4811 c -129.24,0 -234.39,105.1 -234.39,234.4 v 310 c 0,129.3 105.15,234.4 234.39,234.4 h 310.04 c 129.24,0 234.39,-105.1 234.39,-234.4 v -310 c 0,-129.3 -105.15,-234.4 -234.39,-234.4"
         style="fill:#9ec8ff;fill-opacity:1;fill-rule:nonzero;stroke:none"
         id="path42" /><path
         d="M 5121.03,9697.6 H 4811 c -134.76,0 -244.39,109.7 -244.39,244.4 v 310.1 c 0,134.7 109.63,244.4 244.39,244.4 h 310.03 c 134.76,0 244.4,-109.7 244.4,-244.4 V 9942 c 0,-134.7 -109.64,-244.4 -244.4,-244.4 M 4811,10356.4 c -57.56,0 -104.4,-46.8 -104.4,-104.3 V 9942 c 0,-57.5 46.84,-104.4 104.4,-104.4 h 310.03 c 57.57,0 104.4,46.9 104.4,104.4 v 310.1 c 0,57.5 -46.83,104.3 -104.4,104.3 H 4811"
         style="fill:#b1d3ff;fill-opacity:1;fill-rule:nonzero;stroke:none"
         id="path44" /><path
         d="m 6452.03,15576.2 h -196.5 l -370.9,859.7 h 214.92 l 261.6,-614.1 265.28,614.1 h 197.73 l -372.13,-859.7"
         style="fill:#92c5d4;fill-opacity:1;fill-rule:nonzero;stroke:none"
         id="path46" /><path
         d="m 7363.3,15561.4 c -89.25,0 -169.69,19.3 -241.33,57.8 -71.65,38.5 -127.73,91.5 -168.25,159 -40.52,67.6 -60.79,143.5 -60.79,227.8 0,84.4 20.27,160.3 60.79,227.9 40.52,67.5 96.6,120.5 168.25,159 71.64,38.5 152.08,57.7 241.33,57.7 89.24,0 169.49,-19.2 240.73,-57.7 71.22,-38.5 127.3,-91.5 168.24,-159 40.94,-67.6 61.42,-143.5 61.42,-227.9 0,-84.3 -20.48,-160.2 -61.42,-227.8 -40.94,-67.5 -97.02,-120.5 -168.24,-159 -71.24,-38.5 -151.49,-57.8 -240.73,-57.8 m 0,719.7 c -50.77,0 -96.61,-11.6 -137.55,-35 -40.94,-23.3 -73.07,-55.8 -96.41,-97.6 -23.34,-41.8 -34.99,-89.2 -34.99,-142.5 0,-53.2 11.65,-100.7 34.99,-142.4 23.34,-41.8 55.47,-74.3 96.41,-97.7 40.94,-23.3 86.78,-35 137.55,-35 50.76,0 96.6,11.7 137.56,35 40.92,23.4 73.08,55.9 96.4,97.7 23.34,41.7 35.01,89.2 35.01,142.4 0,53.3 -11.67,100.7 -35.01,142.5 -23.32,41.8 -55.48,74.3 -96.4,97.6 -40.96,23.4 -86.8,35 -137.56,35"
         style="fill:#92c5d4;fill-opacity:1;fill-rule:nonzero;stroke:none"
         id="path48" /><path
         d="m 8409.67,15576.2 h -198.94 v 697.6 h -275.12 v 162.1 h 749.18 v -162.1 h -275.12 v -697.6"
         style="fill:#92c5d4;fill-opacity:1;fill-rule:nonzero;stroke:none"
         id="path50" /><path
         d="m 9518.68,15576.2 h -665.66 v 859.7 h 649.7 v -159.7 h -451.96 v -186.6 h 399.14 v -154.8 h -399.14 v -198.9 h 467.92 v -159.7"
         style="fill:#92c5d4;fill-opacity:1;fill-rule:nonzero;stroke:none"
         id="path52" /><path
         d="m 29504.6,15695.3 c -62.8,0.9 -124.5,-1.5 -184.7,-6.8 3.5,34 5.6,68.4 6.1,103.1 11.5,803.1 -792.2,1465.8 -1795.3,1480.2 -822.3,11.8 -1523.1,-415.9 -1755.3,-1013 -172.4,65.7 -364.2,103.6 -566.6,106.5 -764.1,11 -1390.7,-480.9 -1399.5,-1098.7 -8.9,-617.7 603.3,-1127.4 1367.4,-1138.4 516.5,-7.4 3860.6,6.4 4305.8,0 649.7,-9.3 1181.4,355.4 1187.5,780.5 6.1,425.1 -515.7,777.3 -1165.4,786.6"
         style="fill:#ffffff;fill-opacity:1;fill-rule:nonzero;stroke:none"
         id="path54" /><path
         d="m 27497.5,17272 c -808,0.1 -1493.1,-424.1 -1722.1,-1013.2 -172.4,65.7 -364.2,103.6 -566.6,106.5 -8.4,0.1 -16.7,0.2 -25,0.2 -752.7,0 -1365.8,-487.9 -1374.5,-1098.9 -8.9,-617.7 603.3,-1127.4 1367.4,-1138.4 115.4,-1.7 372,-2.3 705.7,-2.3 863.4,0 2243.9,4 3036.3,4 272.5,0 475.4,-0.4 563.8,-1.7 8.2,-0.1 16.3,-0.2 24.4,-0.2 638.6,0 1157,360.9 1163.1,780.7 6.1,425.1 -515.7,777.3 -1165.4,786.6 -8.6,0.2 -17.2,0.2 -25.7,0.2 -53.9,0 -107,-2.4 -159,-7 3.5,34 5.6,68.4 6.1,103.1 11.5,803.1 -792.2,1465.8 -1795.3,1480.2 -11,0.1 -22.2,0.2 -33.2,0.2 z m 0,-100 c 10.6,0 21.2,-0.1 31.8,-0.2 946.3,-13.6 1707.4,-632.1 1696.7,-1378.8 -0.4,-30.6 -2.3,-62.4 -5.6,-94.4 l -12.3,-120.4 120.6,10.7 c 49.8,4.4 100.3,6.6 150.2,6.6 8.1,0 16.2,0 24.3,-0.2 295,-4.2 569.9,-82.4 774.1,-220.2 191.2,-129.1 295.1,-294.2 292.7,-464.9 -2.5,-170.9 -109.2,-336.6 -300.5,-466.5 -204.9,-139.1 -475.7,-215.7 -762.6,-215.7 -7.6,0 -15.3,0.1 -22.9,0.2 -82.2,1.2 -267.1,1.7 -565.3,1.7 -387.8,0 -906.8,-0.9 -1456.2,-1.9 -560.1,-1 -1139.2,-2.1 -1580.1,-2.1 -368.7,0 -599.1,0.8 -704.3,2.3 -707.7,10.2 -1276.9,475.3 -1268.8,1037 3.8,264.8 135.4,514 370.6,701.9 241.1,192.4 562.1,298.4 903.9,298.4 7.8,0 15.7,-0.1 23.6,-0.2 186.1,-2.6 365.3,-36.3 532.4,-99.9 l 92.8,-35.3 36,92.5 c 52.2,134.4 130.8,261.1 233.6,376.6 102.3,115.1 226.3,216.4 368.4,301.3 297.6,177.6 652.7,271.5 1026.9,271.5"
         style="fill:#63acc2;fill-opacity:1;fill-rule:nonzero;stroke:none"
         id="path56" /><path
         d="m 31740.5,14404.1 c -39.2,0.6 -77.7,-0.9 -115.3,-4.2 2.2,21.2 3.5,42.7 3.8,64.3 7.2,501.4 -494.6,915.2 -1120.9,924.2 -513.4,7.4 -951,-259.7 -1096,-632.4 -107.6,40.9 -227.3,64.6 -353.7,66.4 -477.1,6.9 -868.3,-300.2 -873.8,-685.9 -5.6,-385.7 376.7,-704 853.7,-710.8 322.5,-4.7 2410.5,4 2688.4,0 405.7,-5.8 737.6,221.9 741.4,487.3 3.8,265.4 -321.9,485.3 -727.6,491.1"
         style="fill:#ffffff;fill-opacity:1;fill-rule:nonzero;stroke:none"
         id="path58" /><path
         d="m 30487.4,15388.5 c -504.5,0.1 -932.2,-264.8 -1075.3,-632.5 -107.6,40.9 -227.3,64.6 -353.7,66.4 -5.2,0.1 -10.5,0.2 -15.7,0.2 -469.9,0 -852.7,-304.7 -858.1,-686.1 -5.6,-385.7 376.7,-704 853.7,-710.8 72.1,-1.1 232.3,-1.4 440.7,-1.4 539.1,0 1401,2.5 1895.7,2.5 170.2,0 296.8,-0.3 352,-1.1 5.1,-0.1 10.2,-0.1 15.3,-0.1 398.7,0 722.4,225.3 726.1,487.4 3.8,265.4 -321.9,485.3 -727.6,491.1 -5.3,0.1 -10.7,0.1 -16,0.1 -33.7,0 -66.8,-1.5 -99.3,-4.3 2.2,21.2 3.5,42.7 3.8,64.3 7.2,501.4 -494.6,915.2 -1120.9,924.2 -6.9,0.1 -13.8,0.1 -20.7,0.1 z m 0,-100 c 6.4,0 12.9,0 19.3,-0.1 280.2,-4 541.5,-94.4 735.8,-254.6 187.8,-154.8 289.5,-356.6 286.5,-568.1 -0.3,-18.1 -1.4,-36.8 -3.3,-55.7 l -12.3,-120.5 120.6,10.7 c 30,2.7 60.4,4 90.5,4 4.8,0 9.7,0 14.6,-0.1 343.9,-4.9 632,-183.4 629,-389.7 -1.3,-92.7 -63.7,-187.7 -171.1,-260.7 -121.8,-82.6 -283.4,-128.1 -455,-128.1 -4.6,0 -9.2,0 -13.8,0.1 -51.5,0.7 -167.1,1.1 -353.5,1.1 -242.2,0 -566.2,-0.6 -909.3,-1.2 -349.6,-0.7 -711.2,-1.3 -986.4,-1.3 -230.1,0 -373.7,0.4 -439.2,1.4 -421.2,6 -760,279.4 -755.2,609.3 2.2,153.9 79.3,299.3 217.3,409.4 143.9,114.9 336,178.2 540.8,178.2 4.8,0 9.5,-0.1 14.3,-0.2 111.8,-1.6 219.3,-21.7 319.5,-59.9 l 92.8,-35.3 36,92.5 c 61.9,159.2 189.8,302.9 360.2,404.6 179.9,107.5 395,164.3 621.9,164.2"
         style="fill:#63acc2;fill-opacity:1;fill-rule:nonzero;stroke:none"
         id="path60" /><path
         d="m 3840.47,2343.1 c 0,0 -2091.5,2223.5 -1285.75,2380.1 805.75,156.6 1652.06,-1861 1728.9,-1652.2 76.85,208.8 -563.15,2464.7 -203.15,2516.7 360,52.1 961.32,-2562.3 961.32,-2562.3 0,0 85.54,1363 742.11,1648.7 656.57,285.7 -157.99,-2284 -157.99,-2284 l -1785.44,-47"
         style="fill:#9cd499;fill-opacity:1;fill-rule:nonzero;stroke:none"
         id="path62" /><path
         d="m 22840.5,5017.6 c 1877.8,1323.9 2379.9,1963.9 2885.6,4053.3 505.6,2089.4 2836.3,4612.7 1834,4185.7 -1002.4,-427 -2734.5,-2270.3 -2664.5,-4059.2 70.1,-1789 -189.8,-2303.9 -484.6,-2714.5 -294.8,-410.7 -1558.6,-1321.3 -1558.6,-1321.3 l -11.9,-144"
         style="fill:#9cd499;fill-opacity:1;fill-rule:nonzero;stroke:none"
         id="path64" /><path
         d="m 24008.4,5912.2 c 6.6,5.7 13,11.4 19.5,17.1 112.7,149.3 687.6,921.5 822,1316.9 149.3,438.9 29.6,1575.7 492.7,2400.4 463,824.7 678.8,1604.4 899.2,2196.2 291,781.3 1132.8,1373.2 1563.6,1410.8 -1.6,8 -4.4,15 -8,21.2 l -106.1,25.1 c -35.1,-6.6 -78.5,-20.8 -131.2,-43.3 -1002.4,-427 -2734.5,-2270.3 -2664.5,-4059.2 70.1,-1789 -189.8,-2303.9 -484.6,-2714.6 -79.5,-110.7 -229.6,-257.9 -406.3,-413.7 l 3.7,-156.9"
         style="fill:#74b570;fill-opacity:1;fill-rule:nonzero;stroke:none"
         id="path66" /><path
         d="m 25356.4,7723.2 c 541.8,2138.5 6299.5,4421.6 5776.8,3755.6 -522.7,-666.1 -1913.1,-2271.5 -3484.9,-2878.3 -1571.9,-606.8 -2170.8,-1488.2 -2552,-2564.9 -381.2,-1076.8 -281.7,-450.9 260.1,1687.6"
         style="fill:#9cd499;fill-opacity:1;fill-rule:nonzero;stroke:none"
         id="path68" /><path
         d="m 24426.4,5168.1 c -42,0 -73.2,8.7 -75.7,9.4 -15.9,4.7 -25.1,21.3 -20.4,37.2 4.6,15.9 21.2,25.1 37.1,20.5 0.8,-0.2 89,-24.5 155.5,18.3 40.2,25.9 65.6,72.1 75.5,137.4 63.7,420.1 206.8,740.1 333.1,1022.5 77.4,173.2 144.3,322.8 181.2,469 53,210.2 207.1,580.4 480.5,989 333.9,499 769.3,936.9 1259.2,1266.4 575.8,387.3 984,606.8 1549,910.7 558.2,300.2 1253,673.8 2413.4,1368.1 14.2,8.5 32.6,3.9 41.1,-10.3 8.5,-14.2 3.9,-32.7 -10.3,-41.2 -1161.6,-695 -1857,-1069 -2415.8,-1369.5 -563.5,-303 -970.6,-521.9 -1544,-907.6 -1141,-767.5 -1624.8,-1863 -1714.9,-2220.3 -38.2,-151.3 -109.3,-310.4 -184.6,-478.8 -124.7,-278.9 -266.1,-594.9 -328.6,-1007 -12.6,-83.3 -47.2,-143.6 -102.8,-179.2 -42.8,-27.3 -90.1,-34.6 -128.5,-34.6"
         style="fill:#74b570;fill-opacity:1;fill-rule:nonzero;stroke:none"
         id="path70" /><path
         d="m 28495.6,9984.7 c -57.8,0 -91.2,2.4 -94.6,2.6 -16.5,1.2 -28.9,15.6 -27.7,32.1 1.2,16.5 15.6,28.8 32.1,27.8 8.1,-0.6 821.1,-53.7 1579,418.1 14.1,8.8 32.6,4.5 41.3,-9.6 8.8,-14.1 4.5,-32.6 -9.6,-41.3 -405.1,-252.2 -822.2,-354.9 -1100.8,-396.6 -183.4,-27.5 -330.5,-33.1 -419.7,-33.1"
         style="fill:#74b570;fill-opacity:1;fill-rule:nonzero;stroke:none"
         id="path72" /><path
         d="m 28296.2,9351.2 c -518,0 -829.3,99.7 -833.6,101.1 -15.7,5.2 -24.3,22.1 -19.1,37.8 5.2,15.8 22.1,24.3 37.9,19.2 5.8,-1.9 589.9,-188.3 1494.1,-42.5 16.3,2.6 31.8,-8.5 34.4,-24.9 2.7,-16.3 -8.5,-31.7 -24.8,-34.4 -256.7,-41.3 -488.3,-56.3 -688.9,-56.3"
         style="fill:#74b570;fill-opacity:1;fill-rule:nonzero;stroke:none"
         id="path74" /><path
         d="m 8964.66,2390.1 c 0,0 -1916.62,1960.3 -1657.8,2331.2 445.52,638.5 2342.48,-1572 2342.48,-1572 0,0 -2656.96,5950.3 -2168.87,7237.1 488.09,1286.8 2477.36,-2851.3 2477.36,-2851.3 0,0 1909.27,9218 2755.97,9101.3 846.7,-116.6 412.2,-4804.5 412.2,-4804.5 l 5765.6,2087.9 c 0,0 2508.9,2417.1 3108.9,2048.6 600,-368.6 -1062.7,-2639.6 -811.3,-2544.1 251.3,95.5 2838.7,2910.3 3605,2302.9 766.3,-607.4 -3066.4,-3156.2 -3066.4,-3156.2 l 2567.1,-8642.8 c 0,0 2065.8,4479.9 4374.1,4013.2 1183,-239.1 -2430.3,-3521.5 -2430.3,-3521.5 0,0 2263.3,1651.3 3153.8,1167.8 890.5,-483.5 -2472.6,-1720.4 -2031.7,-1901.9 440.9,-181.6 -950,-1081.6 -950,-1081.6 0,0 1098,671.5 1583.9,393.5 485.8,-277.9 325,-654.6 325,-654.6 l -19355.04,47"
         style="fill:#9cd499;fill-opacity:1;fill-rule:nonzero;stroke:none"
         id="path76" /><path
         d="m 30670,2390.1 c 0,0 130.5,2581.6 650.5,2475.6 520,-105.9 -120,-1934.7 0,-1840.3 120,94.4 1183.9,3071.9 1792,2563.1 608,-508.7 -1221.3,-2298.8 -1221.3,-2298.8 0,0 933.2,642.1 1221.3,396.1 288,-246 -952,-1295.7 -952,-1295.7 H 30670"
         style="fill:#9cd499;fill-opacity:1;fill-rule:nonzero;stroke:none"
         id="path78" /><path
         d="m 9244.65,4564.8 c -1.8,51 -1264.14,2509.9 -2424.96,2249 -1160.82,-260.8 -1322.02,-614 -2123.6,-775.2 -571.87,-115.1 -1049.06,-98.5 -1049.06,-98.5 0,0 558.63,-622.3 1654.68,-554.5 774.94,47.9 1552.79,734.6 2116.15,841.4 563.37,106.9 1259.1,-926.1 1259.1,-926.1 l 310.95,-556.2 256.74,-179.9"
         style="fill:#9cd499;fill-opacity:1;fill-rule:nonzero;stroke:none"
         id="path80" /><path
         d="m 8881.1,5278.1 c -9.16,0 -18.2,4.2 -24.09,12.1 -652.46,877.1 -1190.26,1328.1 -1692.51,1419.2 -441.28,80.1 -797.9,-129.9 -1175.42,-352.1 -95.39,-56.2 -194.02,-114.2 -294.01,-167.3 -875.9,-464.4 -1396.97,-408 -1418.72,-405.4 -16.44,2 -28.17,16.9 -26.18,33.3 1.98,16.5 16.9,28.2 33.38,26.2 5.12,-0.6 526.2,-55.6 1383.41,399 98.81,52.4 196.86,110.1 291.68,165.9 387.39,228.1 753.27,443.5 1216.57,359.4 518.14,-94 1067.85,-552.3 1729.95,-1442.4 9.88,-13.3 7.13,-32.1 -6.18,-42 -5.37,-4 -11.65,-5.9 -17.88,-5.9"
         style="fill:#74b570;fill-opacity:1;fill-rule:nonzero;stroke:none"
         id="path82" /><path
         d="m 9256.84,4532.2 c -895.95,2853.5 -2126.25,4138.3 -3936.39,4848.3 -1810.14,710 -1987.93,1005.9 -1987.93,1005.9 0,0 1082.63,-2285.7 2171.89,-2813.7 1089.26,-528.1 2464.06,-710.1 2786.98,-1073 322.92,-362.9 786.84,-1809.6 786.84,-1809.6 l 200.93,-218.5 -22.32,60.6"
         style="fill:#9cd499;fill-opacity:1;fill-rule:nonzero;stroke:none"
         id="path84" /><path
         d="m 9210.59,4674.5 c -13.27,0 -25.38,8.8 -28.97,22.2 -1.24,4.7 -127.24,471.4 -408.14,1067.1 -258.82,548.8 -705.91,1322.6 -1365.97,1891.9 -653.44,563.7 -1235.2,817.1 -1797.8,1062.2 -532.82,232 -1036.08,451.2 -1529.08,914.5 -12.08,11.3 -12.67,30.3 -1.32,42.4 11.34,12.1 30.33,12.7 42.4,1.3 485.42,-456.1 984.05,-673.3 1511.96,-903.2 566.7,-246.9 1152.71,-502.1 1813.04,-1071.7 668.37,-576.6 1120.22,-1358.5 1381.59,-1913 282.99,-600.3 410.04,-1071.3 411.29,-1076 4.27,-16 -5.24,-32.5 -21.25,-36.7 -2.59,-0.7 -5.2,-1 -7.75,-1"
         style="fill:#74b570;fill-opacity:1;fill-rule:nonzero;stroke:none"
         id="path86" /><path
         d="m 6274.08,8419.8 c -2.97,0 -5.99,0.4 -8.98,1.3 -6.75,2.2 -684.03,210.1 -1470.21,80.6 -16.36,-2.7 -31.78,8.4 -34.47,24.7 -2.7,16.4 8.37,31.8 24.73,34.5 800.88,131.9 1491.05,-80.4 1497.92,-82.5 15.81,-5 24.6,-21.8 19.64,-37.6 -4.03,-12.8 -15.86,-21 -28.63,-21"
         style="fill:#74b570;fill-opacity:1;fill-rule:nonzero;stroke:none"
         id="path88" /><path
         d="m 7579.38,7515.3 c -6.65,0 -13.34,2.2 -18.9,6.7 -622.56,506.2 -1138.67,503.4 -2246.72,449 -16.67,-1.2 -30.63,11.9 -31.44,28.5 -0.82,16.5 11.95,30.6 28.49,31.4 1123.96,55.2 1647.84,57.8 2287.52,-462.4 12.85,-10.4 14.8,-29.3 4.36,-42.2 -5.94,-7.3 -14.58,-11 -23.31,-11"
         style="fill:#74b570;fill-opacity:1;fill-rule:nonzero;stroke:none"
         id="path90" /><path
         d="M 33641.2,2325.1 H 2619.73 c -35.9,0 -65.01,29.1 -65.01,65 0,35.9 29.11,65 65.01,65 H 33641.2 c 35.9,0 65,-29.1 65,-65 0,-35.9 -29.1,-65 -65,-65"
         style="fill:#232e4f;fill-opacity:1;fill-rule:nonzero;stroke:none"
         id="path92" /><path
         d="m 16372.3,15982.1 c 259.1,-165 750.9,-732.3 1064.5,-1062.3 313.7,-330 483.7,-513.4 483.7,-513.4 l -3870,93.4 c 0,0 210,151.6 400,430 190,278.3 253.5,530.3 780,890 530,362 888.8,323.4 1141.8,162.3"
         style="fill:#facf50;fill-opacity:1;fill-rule:nonzero;stroke:none"
         id="path94" /><path
         d="m 15680.5,15849.8 c 190,0 310,-730 400,-890 90,-160 563.7,-190 563.7,-190 v 301.6 c 0,0 86.3,-226.6 146.3,-369.9 170,108.3 395,238.3 615.1,253.4 20.1,-11.1 400.1,-403.5 400.1,-403.5 l -3165.2,-51.6 c 0,0 -190,100 -160,100 30,0 264.3,400 457.1,575 192.9,175 742.9,675 742.9,675"
         style="fill:#e0b03e;fill-opacity:1;fill-rule:nonzero;stroke:none"
         id="path96" /><path
         d="m 16730.5,14644.8 c 0,0 620,265 930,220 310,-45 390,-220 390,-220 h -1320"
         style="fill:#facf50;fill-opacity:1;fill-rule:nonzero;stroke:none"
         id="path98" /><path
         d="m 20111.3,3326.1 v 2194 h -5082.2 v -2194 h -1652.4 c -306.8,0 -555.4,-248.7 -555.4,-555.5 v -135 c 0,-99.7 80.8,-180.5 180.5,-180.5 h 9136.8 c 99.8,0 180.6,80.8 180.6,180.5 v 135 c 0,306.8 -248.7,555.5 -555.4,555.5 h -1652.5"
         style="fill:#3e6bab;fill-opacity:1;fill-rule:nonzero;stroke:none"
         id="path100" /><path
         d="m 15029.1,4016.1 5082.2,391.8 v 924.2 l -5082.2,-53.8 V 4016.1"
         style="fill:#1c447a;fill-opacity:1;fill-rule:nonzero;stroke:none"
         id="path102" /><path
         d="m 20111.3,3685.8 -5082.2,-359.7 h 5082.2 z"
         style="fill:#1c447a;fill-opacity:1;fill-rule:nonzero;stroke:none"
         id="path104" /><path
         d="M 25239.9,5018.7 H 9900.57 c -150.27,0 -272.09,121.8 -272.09,272.1 v 9138.6 c 0,150.3 121.82,272.1 272.09,272.1 H 25239.9 c 150.3,0 272.1,-121.8 272.1,-272.1 V 5290.8 c 0,-150.3 -121.8,-272.1 -272.1,-272.1"
         style="fill:#3e6bab;fill-opacity:1;fill-rule:nonzero;stroke:none"
         id="path106" /><path
         d="M 24820.8,5998.7 H 10319.7 c -135.3,0 -244.9,109.6 -244.9,244.8 v 7818.4 c 0,135.3 109.6,244.9 244.9,244.9 h 14501.1 c 135.2,0 244.8,-109.6 244.8,-244.9 V 6243.5 c 0,-135.2 -109.6,-244.8 -244.8,-244.8"
         style="fill:#bfe6f2;fill-opacity:1;fill-rule:nonzero;stroke:none"
         id="path108" /><path
         d="m 18125.6,5332.1 h -1110.7 c -61.1,0 -111.1,50 -111.1,111.1 v 33.5 c 0,61.1 50,111 111.1,111 h 1110.7 c 61.1,0 111.1,-49.9 111.1,-111 v -33.5 c 0,-61.1 -50,-111.1 -111.1,-111.1"
         style="fill:#1c447a;fill-opacity:1;fill-rule:nonzero;stroke:none"
         id="path110" /><path
         d="m 22341.4,9333.7 c -132.3,1.9 -262.2,-3.6 -389.1,-15.6 7.4,76 11.9,152.7 13,230.2 25.8,1792.9 -1665.7,3270.9 -3777.9,3301.2 -1731.8,24.9 -3208.5,-931.2 -3698.6,-2264.5 -362.9,146.3 -766.7,230.6 -1193,236.7 -1609,23.1 -2929.5,-1076.2 -2949.3,-2455.4 -19.8,-1379.2 1268.6,-2515.9 2877.7,-2539 1087.7,-15.6 8130.3,21.3 9067.8,7.8 1368.2,-19.6 2488.4,795.6 2502.1,1744.7 13.6,949 -1084.5,1734.3 -2452.7,1753.9"
         style="fill:#ffffff;fill-opacity:1;fill-rule:nonzero;stroke:none"
         id="path112" /><path
         d="m 18121.4,12850 c -1703.3,0.1 -3148.8,-948.6 -3632.6,-2265 -362.9,146.3 -766.7,230.6 -1193,236.7 -16.6,0.2 -33.2,0.3 -49.7,0.3 -1586.5,0.1 -2880,-1090.8 -2899.6,-2455.7 -19.8,-1379.2 1268.6,-2515.9 2877.7,-2539 196.4,-2.8 587.3,-3.9 1101.2,-3.9 1876.9,0 5397.5,14.7 7099.6,14.7 412.1,0 717.2,-0.8 867,-3 16.1,-0.2 32.4,-0.3 48.4,-0.3 1346.2,0 2440.2,807.1 2453.7,1745 13.6,949 -1084.5,1734.3 -2452.7,1753.9 -17.1,0.3 -34.2,0.4 -51.2,0.4 -114.6,0 -227.4,-5.5 -337.9,-16 7.4,76 11.9,152.7 13,230.2 25.8,1792.9 -1665.7,3270.9 -3777.9,3301.2 -22,0.4 -44.1,0.5 -66,0.5 z m 0,-200 c 21,0 42.2,-0.1 63.1,-0.4 493.2,-7.1 970.2,-95.8 1417.6,-263.8 430.5,-161.6 815.6,-389.2 1144.4,-676.5 326.5,-285.3 580.9,-614.9 756.2,-979.7 180.1,-374.9 268.5,-771.4 262.7,-1178.4 -1,-69.5 -5.1,-141.4 -12.1,-213.8 l -23.5,-241.3 241.4,22.9 c 105.7,10 213.1,15.1 319,15.1 16,0 32.2,-0.1 48.3,-0.3 315.4,-4.6 620.3,-51.7 906.2,-140 273.2,-84.5 517.1,-202.6 724.9,-351.2 408.3,-292 630.1,-668.4 624.5,-1059.9 -2.8,-193.8 -60.3,-384.8 -171,-567.8 -111.3,-184.1 -270.4,-351.3 -472.9,-497 -208.4,-149.9 -450.5,-268.1 -719.5,-351.3 -282.9,-87.5 -582.4,-131.8 -890.3,-131.8 -15.1,0 -30.4,0.1 -45.5,0.3 -142.2,2 -426.8,3 -869.9,3 -830.5,0 -2072.5,-3.4 -3387.5,-7.1 -1352.5,-3.8 -2751,-7.6 -3712.1,-7.6 -556,0 -915.3,1.2 -1098.4,3.9 -370,5.3 -727.7,72.4 -1063.2,199.5 -322.5,122.2 -610.8,294.3 -857,511.4 -243.9,215.2 -433.9,463.8 -564.7,738.7 -134.2,282.1 -200,580.4 -195.6,886.5 8.6,600.9 289.7,1165.6 791.4,1589.9 247.4,209.3 535.5,373.8 856.1,488.7 333.1,119.5 687.1,180 1052.1,180 15.6,0 31.4,-0.1 46.9,-0.3 391.9,-5.6 769.1,-80.4 1121,-222.2 l 191.3,-77.1 71.2,193.6 c 111.5,303.4 278.9,589.3 497.6,849.6 217.1,258.5 479.8,486.2 780.7,676.6 305.4,193.3 643.1,343.6 1003.5,446.8 373.4,106.8 764.8,161 1163.1,161 v 0"
         style="fill:#2e5b9a;fill-opacity:1;fill-rule:nonzero;stroke:none"
         id="path114" /><path
         d="m 21189.2,5998.7 h -7460.4 v 2997.7 l 1995.8,697.6 h 3341.8 l 2122.8,-697.6 V 5998.7"
         style="fill:#f37168;fill-opacity:1;fill-rule:nonzero;stroke:none"
         id="path116" /><path
         d="m 15724.6,9694 -1995.8,-697.6 h 7460.4 L 19066.4,9694 h -3341.8"
         style="fill:#d54a41;fill-opacity:1;fill-rule:nonzero;stroke:none"
         id="path118" /><path
         d="M 18891.6,9256.1 H 15982 l 522.9,281.3 h 1863.9 l 522.8,-281.3"
         style="fill:#f37168;fill-opacity:1;fill-rule:nonzero;stroke:none"
         id="path120" /><path
         d="m 18460.9,9366.7 h -2018.8 c -16.5,0 -30,13.5 -30,30 0,16.6 13.5,30 30,30 h 2018.8 c 16.6,0 30,-13.4 30,-30 0,-16.5 -13.4,-30 -30,-30"
         style="fill:#993341;fill-opacity:1;fill-rule:nonzero;stroke:none"
         id="path122" /><path
         d="m 19246.9,6730.9 h -3649.7 c -133.9,0 -243.4,109.6 -243.4,243.4 v 628.6 c 0,133.9 109.5,243.4 243.4,243.4 h 3649.7 c 133.8,0 243.4,-109.5 243.4,-243.4 v -628.6 c 0,-133.8 -109.6,-243.4 -243.4,-243.4"
         style="fill:#d54a41;fill-opacity:1;fill-rule:nonzero;stroke:none"
         id="path124" /><path
         d="m 16157.3,12066.6 c 105.7,162 1092.3,451 1162.8,443.9 70.4,-7 581.8,-1155.7 689,-1606.7 107.3,-451 121.4,-521.5 121.4,-521.5 0,0 -1141.6,-373.4 -1353,-408.7 -211.4,-35.2 -211.4,-35.2 -211.4,-35.2 0,0 -105.7,1014.7 -211.5,1388.2 -105.7,373.5 -197.3,740 -197.3,740"
         style="fill:#dbe5eb;fill-opacity:1;fill-rule:nonzero;stroke:none"
         id="path126" /><path
         d="m 16897.2,10406.7 c -10.9,0 -20.9,7.2 -24,18.2 -3.7,13.3 4,27.1 17.3,30.8 l 655.4,183.3 c 13.3,3.7 27.1,-4.1 30.8,-17.4 3.7,-13.3 -4,-27.1 -17.3,-30.8 l -655.4,-183.2 c -2.3,-0.6 -4.5,-0.9 -6.8,-0.9"
         style="fill:#3e6bab;fill-opacity:1;fill-rule:nonzero;stroke:none"
         id="path128" /><path
         d="m 16862,10498.3 c -10.8,0 -20.8,7.1 -24,18.1 -3.8,13.2 3.8,27.1 17.1,30.9 l 634.2,183.2 c 13.3,3.9 27.1,-3.8 31,-17.1 3.8,-13.2 -3.8,-27.1 -17.1,-30.9 l -634.2,-183.2 c -2.4,-0.7 -4.7,-1 -7,-1"
         style="fill:#3e6bab;fill-opacity:1;fill-rule:nonzero;stroke:none"
         id="path130" /><path
         d="m 16742.2,10878.8 c -11,0 -21,7.3 -24.1,18.4 -3.6,13.3 4.2,27 17.5,30.7 l 591.9,163.3 c 13.4,3.7 27.1,-4.2 30.8,-17.5 3.6,-13.3 -4.2,-27.1 -17.5,-30.7 l -591.9,-163.3 c -2.2,-0.6 -4.5,-0.9 -6.7,-0.9"
         style="fill:#3e6bab;fill-opacity:1;fill-rule:nonzero;stroke:none"
         id="path132" /><path
         d="m 16742.2,10960.4 c -10.9,0 -21,7.3 -24.1,18.3 -3.7,13.3 4.1,27.1 17.4,30.8 l 592,165 c 13.2,3.8 27,-4.1 30.8,-17.3 3.7,-13.3 -4.1,-27.1 -17.4,-30.8 l -592,-165 c -2.2,-0.7 -4.5,-1 -6.7,-1"
         style="fill:#3e6bab;fill-opacity:1;fill-rule:nonzero;stroke:none"
         id="path134" /><path
         d="m 16608.3,11287.5 c -10.8,0 -20.7,7.1 -23.9,17.9 -4,13.3 3.6,27.2 16.8,31.1 l 570.8,169.1 c 13.2,3.9 27.2,-3.6 31.1,-16.8 3.9,-13.3 -3.6,-27.2 -16.9,-31.1 l -570.8,-169.1 c -2.3,-0.7 -4.7,-1.1 -7.1,-1.1"
         style="fill:#3e6bab;fill-opacity:1;fill-rule:nonzero;stroke:none"
         id="path136" /><path
         d="m 16608.3,11372.1 c -6.4,0 -12.8,2.4 -17.6,7.3 -9.8,9.8 -9.8,25.6 0,35.4 5.6,5.6 18.6,18.7 546.4,168.4 13.3,3.8 27.1,-3.9 30.9,-17.2 3.7,-13.3 -4,-27.1 -17.3,-30.9 -189,-53.6 -497.4,-143.5 -527.9,-158.4 -4.3,-3.1 -9.4,-4.6 -14.5,-4.6"
         style="fill:#3e6bab;fill-opacity:1;fill-rule:nonzero;stroke:none"
         id="path138" /><path
         d="m 17552.6,10955.4 c -2.3,0 -4.7,0.3 -7.1,0.9 -16.1,4 -26,20.2 -22,36.3 l 66.6,270.7 c 2.5,10.3 10.3,18.5 20.4,21.5 10.1,3.1 21,0.7 28.9,-6.4 l 116.6,-105.7 c 12.3,-11.1 13.2,-30.1 2.1,-42.4 -11.2,-12.3 -30.1,-13.2 -42.4,-2.1 l -79.4,72 -54.5,-221.9 c -3.4,-13.7 -15.7,-22.9 -29.2,-22.9"
         style="fill:#d54a41;fill-opacity:1;fill-rule:nonzero;stroke:none"
         id="path140" /><path
         d="m 16734.2,16583.6 -527.1,-497.2 c -136.9,-106.5 -152.4,-187.7 -126.6,-359.2 31.9,-212.3 86.1,-374.1 173.3,-374.1 150,0 136.7,416.7 136.7,416.7 l 511.5,514.5 -167.8,299.3"
         style="fill:#f09959;fill-opacity:1;fill-rule:nonzero;stroke:none"
         id="path142" /><path
         d="m 16734.2,16583.6 -155.7,-121.1 c -67.6,-201.3 -93.8,-434.9 -88,-592.1 l 411.5,413.9 -167.8,299.3"
         style="fill:#e38540;fill-opacity:1;fill-rule:nonzero;stroke:none"
         id="path144" /><path
         d="m 17284.5,16088.2 c -109.9,-215.1 -300.6,-394 -448.3,-355.9 -153,39.5 -307.4,300.8 -191.4,539.5 112.4,231.3 271.7,406.5 448.3,355.9 176.7,-50.7 308.5,-310.5 191.4,-539.5"
         style="fill:#f09959;fill-opacity:1;fill-rule:nonzero;stroke:none"
         id="path146" /><path
         d="m 16400.5,12946.4 c 180,-273.3 346.6,-466.6 400,-673.3 53.3,-206.7 -86.7,-526.7 -170,-420 -83.4,106.7 -196.7,135.1 -223.4,433.3 -33.3,373.4 -166.6,424.6 -166.6,424.6 l 160,235.4"
         style="fill:#f09959;fill-opacity:1;fill-rule:nonzero;stroke:none"
         id="path148" /><path
         d="m 15730.5,15916.2 c 200,-96.4 210,-1736.4 520,-2446.4 310,-710 316.6,-714.8 316.6,-714.8 0,0 -267.7,-157 -325.5,-184 -57.8,-27 -733.8,848.6 -861.1,1338.8 -230,885 -455,1025 -710,1065 45,130 290,435 580,685 290,250 480,256.4 480,256.4"
         style="fill:#facf50;fill-opacity:1;fill-rule:nonzero;stroke:none"
         id="path150" /><path
         d="m 17288,14701.5 c 0,0 183.3,138.3 343.5,118.3 160.3,-20 475.3,-165 410.3,-215 -65,-50 -245,-55 -355,0 -110,55 -373.8,121.7 -398.8,96.7"
         style="fill:#f09959;fill-opacity:1;fill-rule:nonzero;stroke:none"
         id="path152" /><path
         d="m 16337.4,16209.3 c 229.7,17.1 341.1,185.2 361.9,210.5 20.9,25.2 33.7,-200.5 77.8,-216.7 44.2,-16.2 94,107.2 148.7,211.9 54.7,104.8 128,95.3 134.7,0 6.6,-95.2 71.8,-382.1 227.5,-446.6 125.8,-52.2 232.5,-72.1 232.5,-72.1 0,0 -37.6,201.2 -23.4,373.5 23.4,283.1 -222.8,523.2 -416.6,556.6 -154.7,26.7 -422.6,4.7 -533.4,-213.3 -106.6,-210 -209.7,-403.8 -209.7,-403.8"
         style="fill:#3a384d;fill-opacity:1;fill-rule:nonzero;stroke:none"
         id="path154" /><path
         d="m 16785.5,16337.1 c -22.2,-67.5 -78.7,-109.5 -126.3,-93.9 -47.6,15.7 -68.2,83.1 -46.1,150.5 22.2,67.5 78.8,109.5 126.4,93.9 47.6,-15.7 68.2,-83.1 46,-150.5"
         style="fill:#f09959;fill-opacity:1;fill-rule:nonzero;stroke:none"
         id="path156" /><path
         d="m 27201.2,11251.2 c -131.8,101.7 -776.6,-158.4 -789.8,-396 -13.2,-237.6 177.1,-745.1 589.6,-781.1 412.6,-35.9 462.1,11.1 497.3,336.7 35.2,325.6 -114.5,699.6 -297.1,840.4"
         style="fill:#3a384d;fill-opacity:1;fill-rule:nonzero;stroke:none"
         id="path158" /><path
         d="m 28975.3,3209.2 c 0,0 293.3,-121.2 246.4,-183.8 -47,-62.7 93.8,-420.5 93.8,-420.5 h -58.6 l -111.5,230.1 c 0,0 46.9,-278.6 -52.8,-321.8 -99.7,-43.3 -445.9,-141.5 -422.4,-60.9 12.5,42.9 95.3,148.2 95.3,148.2 l 209.8,608.7"
         style="fill:#303c60;fill-opacity:1;fill-rule:nonzero;stroke:none"
         id="path160" /><path
         d="m 28789.2,3156.8 c 51.1,-141.3 4.2,-534.3 -66.2,-610.6 -70.4,-76.3 217.1,-5.9 269.9,64.5 52.8,70.4 39.4,530 39.4,530 l -243.1,16.1"
         style="fill:#f09959;fill-opacity:1;fill-rule:nonzero;stroke:none"
         id="path162" /><path
         d="m 25595.8,3149.3 c 0,0 200.8,-245.8 129.7,-278.7 -71,-32.8 -116.9,-414.7 -116.9,-414.7 l -51.7,27.9 11.1,255.5 c 0,0 -90.9,-267.5 -199.2,-258.2 -108.3,9.2 -493,32.1 -400.7,146.9 28,34.8 145.3,78.1 145.3,78.1 l 482.4,443.2"
         style="fill:#303c60;fill-opacity:1;fill-rule:nonzero;stroke:none"
         id="path164" /><path
         d="m 25407.2,3191.6 c -22,-148.6 -249.9,-472.3 -348.1,-506.1 -98.1,-33.7 188.3,-108.1 268.2,-71.2 79.9,36.9 286.3,447.8 286.3,447.8 l -206.4,129.5"
         style="fill:#f09959;fill-opacity:1;fill-rule:nonzero;stroke:none"
         id="path166" /><path
         d="m 26957.1,7688.8 c 0,0 413.6,-2083.2 624.8,-2549.4 159.6,-352.5 1179.2,-2094.5 1311.2,-2068.1 132,26.4 139.2,69.4 139.2,69.4 0,0 -388.7,1387.2 -596.8,1673 -325.6,447.4 -246.4,564.6 -255.2,1400.7 -8.8,836 0.4,852.2 -219.8,1353.9 -220.2,501.6 -220.2,501.6 -220.2,501.6 l -783.2,-381.1"
         style="fill:#f09959;fill-opacity:1;fill-rule:nonzero;stroke:none"
         id="path168" /><path
         d="m 26957.1,7861 c 0,0 -966.2,-2264 -1033.1,-2501.6 -67,-237.6 -533.4,-2252.9 -533.4,-2252.9 0,0 107.8,-93.4 190.5,-79.8 82.7,13.7 813.2,1399.8 832.4,1848.6 19.3,448.9 904.4,1381.7 1010,1777.7 105.6,396 -466.4,1208 -466.4,1208"
         style="fill:#f09959;fill-opacity:1;fill-rule:nonzero;stroke:none"
         id="path170" /><path
         d="m 28862.3,6811.4 c 0,0 136.4,-1135.2 127.6,-1465.2 -8.8,-330 0.4,-369.6 0.4,-369.6 l 1222.9,189.2 c 0,0 -162.8,609.4 -224.4,766.7 -61.6,157.3 -1126.5,878.9 -1126.5,878.9"
         style="fill:#f37168;fill-opacity:1;fill-rule:nonzero;stroke:none"
         id="path172" /><path
         d="m 28897.5,6769.6 c 0,0 67.1,-508.2 134.8,-1045 67.6,-536.8 72,-668.8 72,-668.8 l 1108.9,150.6 -1315.7,1563.2"
         style="fill:#ffffff;fill-opacity:1;fill-rule:nonzero;stroke:none"
         id="path174" /><path
         d="m 29469.5,6848.8 c -57.2,-15.4 -651.2,0 -651.2,0 0,0 250.8,-820.6 400.4,-1709.4 638.1,67 1152.9,88 1152.9,88 0,0 -276.1,897.6 -417.5,1205.6 -141.3,308 -202.9,415.8 -202.9,415.8 h -281.7"
         style="fill:#f37168;fill-opacity:1;fill-rule:nonzero;stroke:none"
         id="path176" /><path
         d="m 29416.7,7283.2 c 0,0 140.8,-243 167.2,-405.8 26.5,-162.8 -8.8,-484 -83.6,-484 -74.8,0 -79.2,27.4 -127.6,202.9 -48.4,175.5 -74.8,242 -74.8,242 h -105.6 v 465.9 l 224.4,-21"
         style="fill:#f09959;fill-opacity:1;fill-rule:nonzero;stroke:none"
         id="path178" /><path
         d="m 27788.7,7986.3 c 23.4,-30.2 394.5,-646.9 453.2,-1192.5 58.7,-545.6 46.9,-1466.7 46.9,-1466.7 l -294.1,-58.7 -175.2,1196.9 -76.3,-1196.9 c 0,0 -328.5,-117.3 -786.1,-29.3 -457.7,88 -962.2,398.9 -962.2,398.9 l 891.7,2147.3 902.1,201"
         style="fill:#394873;fill-opacity:1;fill-rule:nonzero;stroke:none"
         id="path180" /><path
         d="m 27458.7,9926.7 c 0,0 448.8,-146.6 492.8,-350.5 39,-180.7 -112.8,-1325.6 -147.8,-1583.3 -4.4,-32.4 -25,-60.2 -54.6,-74 -142.9,-66 -572,-253.3 -792,-230.1 -237.6,25.1 -540.5,1311.5 -510.5,1445.9 44,197.1 360.8,679.1 607.2,784 246.5,104.8 404.9,8 404.9,8"
         style="fill:#f2f2f2;fill-opacity:1;fill-rule:nonzero;stroke:none"
         id="path182" /><path
         d="m 27150.7,10590 c 0,0 154,-587.3 242,-622.5 88,-35.2 -242,-543 -435.6,-529.2 -193.7,13.9 96.7,480.4 96.7,480.4 l -193.4,595.3 290.3,76"
         style="fill:#f09959;fill-opacity:1;fill-rule:nonzero;stroke:none"
         id="path184" /><path
         d="m 27215.8,10363.8 c -47.4,-186.4 -111.4,-273.4 -191.5,-354.2 l -163.9,504.4 290.3,76 c 0,0 22.5,-115.6 65.1,-226.2"
         style="fill:#e38540;fill-opacity:1;fill-rule:nonzero;stroke:none"
         id="path186" /><path
         d="m 26503.8,10723 c -68.9,-231.5 -54.5,-492.6 78.7,-567 137.9,-77 430,5.4 510.9,258.2 78.4,245 84.1,481.7 -78.7,566.9 -162.7,85.3 -437.4,-11.6 -510.9,-258.1"
         style="fill:#f09959;fill-opacity:1;fill-rule:nonzero;stroke:none"
         id="path188" /><path
         d="m 24174.6,10808.4 240.6,688 c 0,0 -987.6,790.5 -1526.4,876.7 -306.6,49 -568.3,-29.7 -568.3,-29.7 l -499.9,-946.5 c 0,0 907.3,-104.2 1259.8,-392.3 352.5,-288.1 723.6,-630.3 723.6,-630.3 0,0 211.2,90.8 370.6,434.1"
         style="fill:#ffffff;fill-opacity:1;fill-rule:nonzero;stroke:none"
         id="path190" /><path
         d="m 24444.6,10644 c 0,0 -199.3,201.9 -246.5,286 -47.1,84 -154,215.6 -114.4,92.4 39.6,-123.2 48.4,-145.2 39.6,-242 -8.8,-96.8 -79.2,-136.4 -79.2,-136.4 l 325.6,-171.6 74.9,171.6"
         style="fill:#f09959;fill-opacity:1;fill-rule:nonzero;stroke:none"
         id="path192" /><path
         d="m 27001,9918.7 c 0,0 -1416.8,71.1 -1548.8,132 -132,60.9 -1056,667.9 -1056,667.9 0,0 -149.7,-198.1 -158.5,-204.6 -8.8,-6.4 959.3,-772.1 1152.9,-868.9 193.6,-96.8 1100,-313 1100,-313 0,0 -167.2,-887.4 -237.6,-1096.8 -70.4,-209.4 -123.2,-278.3 -123.2,-278.3 0,0 264,-56.5 378.4,45.8 114.4,102.3 140.8,880.2 140.8,1202.3 0,322.1 352,713.6 352,713.6"
         style="fill:#394873;fill-opacity:1;fill-rule:nonzero;stroke:none"
         id="path194" /><path
         d="m 27762.3,9838.7 c 0,0 312.4,-101.8 624.8,-400.7 312.4,-298.9 765.6,-706.4 853.6,-942.2 88,-235.8 228.8,-1260.6 228.8,-1260.6 0,0 -246.4,-83.5 -281.6,-46.6 -35.2,36.9 -277.2,934.2 -400.4,1088.1 -123.2,153.8 -792.8,778.8 -792.8,778.8 l 238.4,-910.7 c 0,0 -331.7,-217 -557.5,-106.4 -225.7,110.7 -324,402.4 -472.9,758.2 -148.9,355.7 256,1130.1 256,1130.1 l 303.6,-88"
         style="fill:#394873;fill-opacity:1;fill-rule:nonzero;stroke:none"
         id="path196" /><path
         d="m 27344.3,10082.2 c 14.6,-17.6 114.4,-155.5 114.4,-155.5 0,0 -199.3,-414.1 -288.9,-488.7 -89.5,-74.5 -204,-45.1 -204,-45.1 0,0 -247.1,102.3 -196.9,195.2 99,183.5 232.1,330.6 232.1,330.6 l 30.7,68.2 22.1,-68.2 c 0,0 -41,-59.4 -73.3,-144.5 -32.3,-85.1 -26.4,-299.2 -41.1,-325.6 -14.6,-26.4 41.1,-5.9 76.3,99.7 35.2,105.6 44,261.1 44,261.1 0,0 155.5,88 208.3,152.5 52.8,64.6 76.3,120.3 76.3,120.3"
         style="fill:#f2f2f2;fill-opacity:1;fill-rule:nonzero;stroke:none"
         id="path198" /><path
         d="m 22289.5,11647.4 c -4.4,0 -8.9,1.2 -12.9,3.6 -11.8,7.2 -15.6,22.5 -8.5,34.4 l 329.3,545.1 c 7.2,11.8 22.5,15.6 34.3,8.4 11.8,-7.1 15.6,-22.5 8.5,-34.3 l -329.3,-545.1 c -4.7,-7.8 -13,-12.1 -21.4,-12.1"
         style="fill:#3e6bab;fill-opacity:1;fill-rule:nonzero;stroke:none"
         id="path200" /><path
         d="m 22980.4,11534.8 c -4.6,0 -9.4,1.3 -13.6,4 -11.6,7.6 -14.8,23.1 -7.2,34.6 l 304.2,465 c 7.5,11.6 23,14.8 34.6,7.3 11.5,-7.6 14.8,-23.1 7.2,-34.6 l -304.2,-465 c -4.8,-7.4 -12.8,-11.3 -21,-11.3"
         style="fill:#3e6bab;fill-opacity:1;fill-rule:nonzero;stroke:none"
         id="path202" /><path
         d="m 23405.5,11356.7 c -2.4,0 -4.8,0.4 -7.2,1.1 -13.2,3.9 -20.7,17.9 -16.8,31.1 1.1,3.7 3.4,11.4 237.5,404 7.1,11.9 22.4,15.8 34.3,8.7 11.8,-7.1 15.7,-22.4 8.6,-34.3 -89,-149.4 -223.9,-376.7 -233.4,-395.3 -3.9,-9.3 -13.1,-15.3 -23,-15.3"
         style="fill:#3e6bab;fill-opacity:1;fill-rule:nonzero;stroke:none"
         id="path204" /><path
         d="m 22485.8,11622.7 c -4.3,0 -8.6,1.1 -12.6,3.4 -11.9,6.9 -15.9,22.3 -9,34.2 l 322.2,552.1 c 6.9,11.9 22.3,15.9 34.2,9 11.9,-7 15.9,-22.3 9,-34.2 l -322.2,-552.1 c -4.6,-8 -13,-12.4 -21.6,-12.4"
         style="fill:#3e6bab;fill-opacity:1;fill-rule:nonzero;stroke:none"
         id="path206" /><path
         d="m 22867.2,11583.7 c -4.5,0 -9,1.2 -13.1,3.7 -11.8,7.3 -15.4,22.7 -8.1,34.4 11,17.8 270.1,435.8 294.1,468.5 8.2,11.1 23.8,13.6 35,5.4 11.1,-8.2 13.5,-23.8 5.3,-35 -18.3,-24.9 -199,-315.2 -291.9,-465.2 -4.8,-7.6 -12.9,-11.8 -21.3,-11.8"
         style="fill:#3e6bab;fill-opacity:1;fill-rule:nonzero;stroke:none"
         id="path208" /><path
         d="m 23086.2,11081.2 c -14.3,0 -27,10.3 -29.5,24.9 -2.8,16.3 8.1,31.8 24.4,34.6 l 141.4,24.5 -132,270.9 c -7.3,14.9 -1.1,32.8 13.8,40.1 14.9,7.2 32.8,1.1 40.1,-13.8 l 149.5,-306.9 c 4.1,-8.4 4,-18.4 -0.3,-26.8 -4.3,-8.4 -12.3,-14.3 -21.6,-15.9 l -180.7,-31.2 c -1.7,-0.3 -3.4,-0.4 -5.1,-0.4"
         style="fill:#d54a41;fill-opacity:1;fill-rule:nonzero;stroke:none"
         id="path210" /><path
         d="m 23318.2,11424.2 c -4.4,0 -8.9,1.2 -12.9,3.6 -11.8,7.2 -15.6,22.6 -8.5,34.4 l 227.4,375.1 c 7.1,11.8 22.5,15.6 34.3,8.4 11.8,-7.1 15.6,-22.5 8.4,-34.3 l -227.3,-375.1 c -4.7,-7.8 -12.9,-12.1 -21.4,-12.1"
         style="fill:#3e6bab;fill-opacity:1;fill-rule:nonzero;stroke:none"
         id="path212" /><path
         d="m 23720.4,11035.4 c -4.3,0 -8.6,1.1 -12.5,3.4 -12,6.9 -16.1,22.2 -9.1,34.1 l 253.8,439.6 c 6.9,11.9 22.2,16 34.2,9.1 11.9,-6.9 16,-22.2 9.1,-34.1 l -253.8,-439.6 c -4.7,-8 -13.1,-12.5 -21.7,-12.5"
         style="fill:#3e6bab;fill-opacity:1;fill-rule:nonzero;stroke:none"
         id="path214" /><path
         d="m 23894.7,10986.2 c -4.2,0 -8.4,1 -12.3,3.2 -12,6.8 -16.3,22.1 -9.5,34.1 l 216,382.7 c 6.8,12 22.1,16.2 34,9.4 12.1,-6.7 16.3,-22 9.5,-34 l -215.9,-382.7 c -4.6,-8.1 -13.1,-12.7 -21.8,-12.7"
         style="fill:#3e6bab;fill-opacity:1;fill-rule:nonzero;stroke:none"
         id="path216" /><path
         d="m 26464.2,10837.6 c 118.8,-242 650,-225.8 646.2,-258.1 -3.7,-32.3 97.5,-500.2 216.3,-497.3 118.8,3 -110.9,975.4 -110.9,975.4 l -492,-22 -259.6,-198"
         style="fill:#3a384d;fill-opacity:1;fill-rule:nonzero;stroke:none"
         id="path218" /><path
         d="m 27435.5,10888.7 c 199.2,80.9 234.4,50.1 300.4,-55.5 66,-105.6 140.8,-147.5 127.6,-243.2 -13.2,-95.6 8.8,-194.4 -30.8,-290.2 -39.6,-95.9 -176,-104.6 -290.4,-161.9 -114.4,-57.1 -169,110.3 -169,110.3 l 62.2,640.5"
         style="fill:#3a384d;fill-opacity:1;fill-rule:nonzero;stroke:none"
         id="path220" /><path
         d="m 27044,10552.1 c -17.5,-72.4 8.4,-140.9 58,-152.9 49.6,-12.1 104.1,36.9 121.6,109.3 17.6,72.4 -8.4,140.9 -58,152.9 -49.6,12.1 -104,-36.9 -121.6,-109.3"
         style="fill:#f09959;fill-opacity:1;fill-rule:nonzero;stroke:none"
         id="path222" /><path
         d="m 9983.52,2920.6 c 0,0 64.08,-247.5 282.18,-310 218,-62.5 430.6,-183.9 124.3,-187.6 -336.1,-4.1 -528.75,11.7 -668.43,35.2 -139.68,23.4 -48.18,269.6 -25.98,386.9 22.19,117.2 287.93,75.5 287.93,75.5"
         style="fill:#0f2d5c;fill-opacity:1;fill-rule:nonzero;stroke:none"
         id="path224" /><path
         d="m 8206.2,3121.8 c 0,0 -46.7,-494.4 72.17,-536.9 118.88,-42.5 254.74,-144.4 84.91,-144.4 -169.82,0 -379.94,-40.1 -434.9,144.4 -67.03,225 -218.62,263 -164.58,377.5 54.06,114.5 217.39,327.3 217.39,327.3 l 225.01,-167.9"
         style="fill:#0f2d5c;fill-opacity:1;fill-rule:nonzero;stroke:none"
         id="path226" /><path
         d="m 10478.5,8278.9 -431.6,-5463.2 c 0,0 -224.17,-103.6 -385.76,-119.2 -161.6,-15.7 -495.82,2618 -467.48,3039.1 28.34,421.1 -292.02,1758.4 -217.82,2191.8 74.2,433.4 1502.66,351.5 1502.66,351.5"
         style="fill:#0e3a82;fill-opacity:1;fill-rule:nonzero;stroke:none"
         id="path228" /><path
         d="m 9614.95,8250 c 30.43,4 61.1,7.7 91.81,10.9 l 745.54,-288.5 -137.5,-1611.3 c -357.31,-785.3 -784.85,-1526.6 -999.61,-2005.7 -97.83,569.8 -134.72,1184.4 -121.53,1380.2 13.64,202.8 -53.58,618.1 -118.66,1042.6 L 9614.95,8250"
         style="fill:#0f2d5c;fill-opacity:1;fill-rule:nonzero;stroke:none"
         id="path230" /><path
         d="M 10265.7,7453.4 C 9847.28,5593.5 8201.5,2997.7 8203.27,2997.7 c 1.77,0 -307.49,53.4 -323.12,194.1 -15.63,140.7 176.51,1871 594.89,2278.2 418.4,407.1 446.96,2340.3 446.96,2340.3 l 1343.7,-356.9"
         style="fill:#0e3a82;fill-opacity:1;fill-rule:nonzero;stroke:none"
         id="path232" /><path
         d="M 9279.16,10053.4 C 8808.53,9580 8506.67,8766.1 8502.58,8564.7 c -4.09,-201.4 542.65,-560.8 542.65,-560.8 l 233.93,2049.5"
         style="fill:#368da8;fill-opacity:1;fill-rule:nonzero;stroke:none"
         id="path234" /><path
         d="m 9808.66,11097.9 -186.36,-927.4 509.7,-548.7 67.8,1124.5 -391.14,351.6"
         style="fill:#f09959;fill-opacity:1;fill-rule:nonzero;stroke:none"
         id="path236" /><path
         d="m 9622.3,10459.7 c 0,0 -240.4,-84.3 -507.97,-763.6 -267.58,-679.3 -453.47,-2353.2 -453.47,-2353.2 0,0 514.14,-436.5 1250.19,-436.3 469.05,0.1 705.95,105.5 705.95,105.5 0,0 46.9,1577.7 0,2147.2 -46.9,569.4 -762.47,1314.8 -994.7,1300.4"
         style="fill:#63acc2;fill-opacity:1;fill-rule:nonzero;stroke:none"
         id="path238" /><path
         d="m 10617,9159.3 c -46.9,569.4 -762.47,1314.8 -994.7,1300.4 0,0 -99.71,-35 -242.15,-241.3 240.25,116.9 539.65,-87 819.65,-747 140.1,-330.2 288.7,-805.2 437.1,-908.8 -2,236.3 -7.8,449.9 -19.9,596.7"
         style="fill:#368da8;fill-opacity:1;fill-rule:nonzero;stroke:none"
         id="path240" /><path
         d="m 10004.4,10317.4 c -151.44,176.4 -207.63,446 -228.47,617.7 l 29.45,146.5 37.92,-14.8 356.5,-320.5 -34.9,-578.5 c -49.7,35.4 -104,83.8 -160.5,149.6"
         style="fill:#e38540;fill-opacity:1;fill-rule:nonzero;stroke:none"
         id="path242" /><path
         d="m 9925.11,10893.6 c 58.51,-276.1 312.69,-428.6 523.69,-383.8 211,44.7 257.1,312.1 198.6,588.1 -58.5,276 -235.2,421.1 -446.2,376.4 -211,-44.7 -334.6,-304.7 -276.09,-580.7"
         style="fill:#f09959;fill-opacity:1;fill-rule:nonzero;stroke:none"
         id="path244" /><path
         d="m 9694.33,10669.2 -159.71,-269.8 846.38,-632.8 c 0,0 -63.7,293.3 -80.8,401.2 -17.1,107.9 -592.44,524.1 -605.87,501.4"
         style="fill:#63acc2;fill-opacity:1;fill-rule:nonzero;stroke:none"
         id="path246" /><path
         d="m 10696.7,11661.8 c 355.5,-111.8 64.9,-559.8 -49.3,-563.9 -114.2,-4.1 -155.8,102.3 -249.6,77.8 -93.8,-24.6 -182.4,142.2 -239.7,105.7 -57.3,-36.5 -20.9,-375.2 0,-432.5 20.8,-57.3 -73,-62.5 -73,-62.5 0,0 -38.2,239.7 -97.23,224 -59.06,-15.6 -102.88,-182.3 -187.79,-224 -84.9,-41.7 -84.9,-41.7 -84.9,-41.7 0,0 -52.11,361.7 -130.27,431 -78.16,69.2 -29.17,308.9 81.81,355.8 110.98,46.9 137.76,260.5 291.11,276.2 153.37,15.6 278.37,-88.6 481.67,-62.6 203.2,26.1 157.8,-52.1 257.2,-83.3"
         style="fill:#153f9c;fill-opacity:1;fill-rule:nonzero;stroke:none"
         id="path248" /><path
         d="m 9835.42,10951.8 c 29.25,-68.8 94.31,-107.1 145.31,-85.4 50.97,21.7 68.67,95.1 39.37,163.9 -29.23,68.8 -94.28,107 -145.29,85.3 -51,-21.6 -68.64,-95 -39.39,-163.8"
         style="fill:#f09959;fill-opacity:1;fill-rule:nonzero;stroke:none"
         id="path250" /><path
         d="m 9449.32,9955.2 c 0,0 872.18,-970 1186.18,-1270 4.3,-279.4 2.1,-604.8 -2,-894.1 -170.2,83.7 -642.85,328.5 -911.93,588 -332.3,320.4 -480.56,1055.1 -272.25,1576.1"
         style="fill:#368da8;fill-opacity:1;fill-rule:nonzero;stroke:none"
         id="path252" /><path
         d="m 12013.5,8677.8 c 57.5,358.1 707.5,1400.6 952.9,1520.9 135.4,66.3 1357.3,-139.6 1357.3,-139.6 0,0 -1386.2,-1203.2 -1564.2,-1848.1 -159.1,-576.2 -139.6,-794.3 -139.6,-794.3 l -559.9,409.2 c 0,0 -133.2,312.9 -46.5,851.9"
         style="fill:#dbe5eb;fill-opacity:1;fill-rule:nonzero;stroke:none"
         id="path254" /><path
         d="m 11859.6,8685.7 c 0,0 208.6,258.3 291.8,233.4 83.2,-24.8 114.6,-28.8 187.6,-24.8 72.9,4 78.1,-101.5 -26.1,-291 -104.2,-189.6 -385.6,-227.6 -453.3,-224.2 -67.8,3.3 0,306.6 0,306.6"
         style="fill:#f09959;fill-opacity:1;fill-rule:nonzero;stroke:none"
         id="path256" /><path
         d="m 9546.71,10167.8 c -337.29,-89.7 -227.54,-944.7 -37.48,-1297.7 136.61,-253.8 592.97,-512.5 871.77,-585.1 278.9,-72.5 1488.2,78.3 1488.2,78.3 0,0 44.5,398.6 -39.7,398.6 -84.2,0 -1082.7,23.1 -1351,265.7 -268.3,242.5 -524.47,1248.5 -931.79,1140.2"
         style="fill:#63acc2;fill-opacity:1;fill-rule:nonzero;stroke:none"
         id="path258" /><path
         d="m 12060,8692.2 c -89.8,57.8 118.1,389.4 118.1,389.4 h 239.6 c 0,0 -77,-90.8 -190.1,-182.3 -113.1,-91.5 -167.6,-207.1 -167.6,-207.1"
         style="fill:#dbe5eb;fill-opacity:1;fill-rule:nonzero;stroke:none"
         id="path260" /><path
         d="m 13724.5,9721.3 c -1.6,0 -3.1,0.1 -4.7,0.4 l -570.5,108.3 c -13.6,2.6 -22.5,15.7 -19.9,29.2 2.5,13.6 15.7,22.5 29.2,19.9 l 570.5,-108.3 c 13.6,-2.5 22.5,-15.6 19.9,-29.2 -2.3,-12 -12.8,-20.3 -24.5,-20.3"
         style="fill:#3e6bab;fill-opacity:1;fill-rule:nonzero;stroke:none"
         id="path262" /><path
         d="m 13439.2,9410.8 c -2.9,0 -5.8,0.5 -8.7,1.6 l -451.1,166 c -12.9,4.8 -19.6,19.1 -14.8,32.1 4.8,13 19.2,19.6 32.1,14.8 l 451.1,-166 c 13,-4.8 19.6,-19.1 14.8,-32.1 -3.7,-10.1 -13.2,-16.4 -23.4,-16.4"
         style="fill:#3e6bab;fill-opacity:1;fill-rule:nonzero;stroke:none"
         id="path264" /><path
         d="m 13356.3,9324.2 c -2.9,0 -5.8,0.5 -8.6,1.5 -137.1,49.9 -402.2,145.9 -424.5,152.5 -13.2,4 -20.8,17.9 -16.8,31.1 3.9,13.3 17.8,20.8 31.1,16.9 29.2,-8.8 411.1,-147.6 427.3,-153.5 13,-4.7 19.7,-19.1 15,-32 -3.7,-10.2 -13.3,-16.5 -23.5,-16.5"
         style="fill:#3e6bab;fill-opacity:1;fill-rule:nonzero;stroke:none"
         id="path266" /><path
         d="m 13031.4,8943.1 c -3.3,0 -6.6,0.6 -9.8,2 -135.8,57.6 -360.5,150.9 -384.9,155.8 -13.6,2.7 -22.4,15.9 -19.7,29.4 2.7,13.5 15.9,22.3 29.5,19.6 36.7,-7.3 335.2,-133.6 394.7,-158.8 12.7,-5.4 18.6,-20 13.2,-32.8 -4,-9.5 -13.3,-15.2 -23,-15.2"
         style="fill:#3e6bab;fill-opacity:1;fill-rule:nonzero;stroke:none"
         id="path268" /><path
         d="m 12988.1,8861.9 c -3.2,0 -6.5,0.6 -9.7,1.9 l -382.6,159.9 c -12.7,5.3 -18.7,19.9 -13.4,32.7 5.3,12.7 19.9,18.7 32.7,13.4 l 382.6,-159.8 c 12.7,-5.4 18.8,-20 13.4,-32.7 -4,-9.6 -13.2,-15.4 -23,-15.4"
         style="fill:#3e6bab;fill-opacity:1;fill-rule:nonzero;stroke:none"
         id="path270" /><path
         d="m 13813.5,9815.1 c -1.5,0 -3.1,0.2 -4.6,0.4 l -599.9,113.2 c -13.6,2.5 -22.5,15.6 -19.9,29.2 2.5,13.5 15.6,22.5 29.2,19.9 l 599.8,-113.1 c 13.6,-2.6 22.5,-15.6 20,-29.2 -2.3,-12 -12.8,-20.4 -24.6,-20.4"
         style="fill:#3e6bab;fill-opacity:1;fill-rule:nonzero;stroke:none"
         id="path272" /><path
         d="m 12754.6,8607.1 c -3.1,0 -6.4,0.6 -9.5,1.9 l -274.3,113.1 c -12.8,5.2 -18.9,19.9 -13.6,32.6 5.3,12.8 19.8,18.8 32.6,13.6 l 274.4,-113.1 c 12.7,-5.3 18.8,-19.9 13.6,-32.7 -4,-9.6 -13.3,-15.4 -23.2,-15.4"
         style="fill:#3e6bab;fill-opacity:1;fill-rule:nonzero;stroke:none"
         id="path274" /><path
         d="m 12701.7,8489.2 c -3.5,0 -7.1,0.7 -10.5,2.3 l -255.1,117.9 c -12.5,5.8 -18,20.6 -12.2,33.2 5.8,12.5 20.7,18 33.2,12.2 l 255.1,-117.9 c 12.5,-5.8 18,-20.7 12.2,-33.2 -4.2,-9.2 -13.3,-14.5 -22.7,-14.5"
         style="fill:#3e6bab;fill-opacity:1;fill-rule:nonzero;stroke:none"
         id="path276" /><path
         d="m 12559.7,8046.4 c -3.4,0 -6.9,0.7 -10.2,2.2 l -348.9,156.4 c -12.6,5.6 -18.3,20.4 -12.6,33 5.6,12.6 20.4,18.2 33,12.6 l 349,-156.4 c 12.5,-5.6 18.2,-20.4 12.5,-33 -4.1,-9.3 -13.2,-14.8 -22.8,-14.8"
         style="fill:#3e6bab;fill-opacity:1;fill-rule:nonzero;stroke:none"
         id="path278" /><path
         d="m 12506.8,7940.5 c -3.4,0 -6.8,0.7 -10.1,2.1 -317.2,140.5 -324,145 -326.3,146.5 -11.4,7.6 -14.5,23.2 -6.9,34.7 7.4,11 22.1,14.3 33.5,7.7 14.3,-7.5 198.7,-89.5 319.9,-143.1 12.6,-5.6 18.3,-20.4 12.7,-33 -4.1,-9.4 -13.2,-14.9 -22.8,-14.9"
         style="fill:#3e6bab;fill-opacity:1;fill-rule:nonzero;stroke:none"
         id="path280" /><path
         d="m 12617.5,9521.3 c -6.2,0 -12.4,2 -17.7,5.8 -9,6.6 -13.6,17.6 -12,28.7 l 24.1,161.2 c 2.4,16.4 17.7,27.7 34.1,25.2 16.4,-2.4 27.7,-17.7 25.2,-34.1 l -15.6,-104.3 302.3,150.1 c 14.8,7.3 32.8,1.3 40.2,-13.5 7.4,-14.9 1.3,-32.9 -13.5,-40.3 l -353.8,-175.6 c -4.2,-2.1 -8.8,-3.2 -13.3,-3.2"
         style="fill:#d54a41;fill-opacity:1;fill-rule:nonzero;stroke:none"
         id="path282" /></g></g></svg>
